<svg xmlns="http://www.w3.org/2000/svg" viewBox="0 0 64 64" role="img" aria-label="Amazon Pay">
	<rect width="64" height="64" rx="12" fill="#FF9900"/>
	<!-- Large stylized 'a' for clarity (generic geometric form, not exact proprietary glyph) -->
	<path fill="#111" d="M34 42.5c0 2.8-2.2 5.1-6.3 5.1-2.4 0-4.9-.6-7.3-1.7l1.2-4.3c2.1 1 4.3 1.6 6.2 1.6 1.5 0 2.2-.5 2.2-1.2 0-.7-.7-1-3.2-1.9-3.9-1.3-5.5-3-5.5-5.7 0-3.3 2.8-5.6 7.2-5.6 2.2 0 4.3.4 6.4 1.2l-1.1 4.1c-1.7-.7-3.5-1.1-5.1-1.1-1.4 0-2 .4-2 1 0 .7.9 1.1 3.6 2 3.9 1.3 5.4 3.1 5.4 5.5Z"/>
	<!-- Smile curve -->
	<path fill="#111" d="M14 48.2c6.5 3.8 16.2 4.3 23.7 1.3 1-.4 1.6.9.7 1.5-8.1 5.3-19.6 4.9-26.7-.1-.8-.6-.2-1.9.8-1.4Z"/>
	<!-- Arrow accent at end of smile -->
	<path fill="#111" d="M42.6 46.9c.2-.2.5-.2.7 0l3 2.8c.3.3.1.8-.3.9l-3.9.9c-.5.1-.9-.4-.6-.8l1.1-1.2-1.6-.6c-.4-.2-.5-.7-.1-.9l1.7-.9Z"/>
	<!-- PAY label token for differentiation -->
	<rect x="40" y="10" width="15" height="15" rx="4" fill="#111"/>
	<text x="47.5" y="21" text-anchor="middle" font-family="'Helvetica Neue',Arial,sans-serif" font-size="8" font-weight="600" fill="#FF9900">pay</text>
</svg>