<svg xmlns="http://www.w3.org/2000/svg" viewBox="0 0 1200 675" width="1200" height="675" role="img" aria-label="PCI compliance"><defs><linearGradient id="g" x1="0" y1="0" x2="1" y2="1"><stop offset="0" stop-color="#e9f7f1"/><stop offset="1" stop-color="#ffffff"/></linearGradient><filter id="s" x="-40%" y="-40%" width="180%" height="180%"><feDropShadow dx="0" dy="20" stdDeviation="34" flood-color="#0f9d6b" flood-opacity="0.20"/></filter></defs><rect width="1200" height="675" fill="url(#g)"/><circle cx="1060" cy="90" r="250" fill="#0f9d6b" opacity="0.08"/><circle cx="150" cy="600" r="190" fill="#334155" opacity="0.10"/><g opacity="0.5"><circle cx="980" cy="560" r="8" fill="#0f9d6b"/><circle cx="1030" cy="560" r="8" fill="#0f9d6b"/><circle cx="1080" cy="560" r="8" fill="#0f9d6b"/><circle cx="980" cy="600" r="8" fill="#0f9d6b"/><circle cx="1030" cy="600" r="8" fill="#0f9d6b"/><circle cx="1080" cy="600" r="8" fill="#0f9d6b"/></g><g transform="translate(600,338)" filter="url(#s)"><path d="M0 -155 L140 -108 V20 C140 108 70 150 0 172 C-70 150 -140 108 -140 20 V-108 Z" fill="#0f9d6b"/><rect x="-52" y="-8" width="104" height="90" rx="16" fill="#fff"/><path d="M-34 -8 V-38 a34 34 0 0 1 68 0 V-8" fill="none" stroke="#fff" stroke-width="16"/><circle cx="0" cy="30" r="16" fill="#0f9d6b"/></g></svg>