<svg xmlns="http://www.w3.org/2000/svg" viewBox="0 0 1200 675" width="1200" height="675" role="img" aria-label="Accept crypto payments">
  <defs>
    <linearGradient id="g" x1="0" y1="0" x2="1" y2="1"><stop offset="0" stop-color="#fff6e6"/><stop offset="1" stop-color="#ffffff"/></linearGradient>
    <filter id="s" x="-40%" y="-40%" width="180%" height="180%"><feDropShadow dx="0" dy="20" stdDeviation="34" flood-color="#e69500" flood-opacity="0.22"/></filter>
  </defs>
  <rect width="1200" height="675" fill="url(#g)"/>
  <circle cx="1060" cy="90" r="250" fill="#f0a500" opacity="0.08"/>
  <circle cx="150" cy="600" r="190" fill="#0666eb" opacity="0.10"/>
  <g opacity="0.5"><circle cx="980" cy="560" r="8" fill="#f0a500"/><circle cx="1030" cy="560" r="8" fill="#f0a500"/><circle cx="1080" cy="560" r="8" fill="#f0a500"/><circle cx="980" cy="600" r="8" fill="#f0a500"/><circle cx="1030" cy="600" r="8" fill="#f0a500"/><circle cx="1080" cy="600" r="8" fill="#f0a500"/></g>
  <g transform="translate(600,338)" filter="url(#s)">
    <rect x="10" y="-64" width="220" height="150" rx="22" fill="#0666eb" transform="rotate(9 120 11)"/>
    <rect x="24" y="-30" width="220" height="24" fill="#ffffff" opacity="0.55" transform="rotate(9 120 11)"/>
    <circle cx="-70" cy="8" r="100" fill="#f0a500"/>
    <circle cx="-70" cy="8" r="100" fill="none" stroke="#ffffff" stroke-width="9" opacity="0.55"/>
    <path d="M-70 -44 l11 37 l37 15 l-37 15 l-11 37 l-11 -37 l-37 -15 l37 -15 z" fill="#ffffff"/>
    <circle cx="150" cy="92" r="48" fill="#16b364"/>
    <path d="M127 92 l16 18 l31 -40" stroke="#ffffff" stroke-width="13" fill="none" stroke-linecap="round" stroke-linejoin="round"/>
  </g>
</svg>
