<svg xmlns="http://www.w3.org/2000/svg" viewBox="0 0 1200 675" width="1200" height="675" role="img" aria-label="Add a gateway to VirtueMart"><defs><linearGradient id="g" x1="0" y1="0" x2="1" y2="1"><stop offset="0" stop-color="#fff3ea"/><stop offset="1" stop-color="#ffffff"/></linearGradient><filter id="s" x="-40%" y="-40%" width="180%" height="180%"><feDropShadow dx="0" dy="20" stdDeviation="34" flood-color="#ef7a2a" flood-opacity="0.20"/></filter></defs><rect width="1200" height="675" fill="url(#g)"/><circle cx="1060" cy="90" r="250" fill="#ef7a2a" opacity="0.08"/><circle cx="150" cy="600" r="190" fill="#5091cd" opacity="0.10"/><g opacity="0.5"><circle cx="980" cy="560" r="8" fill="#ef7a2a"/><circle cx="1030" cy="560" r="8" fill="#ef7a2a"/><circle cx="1080" cy="560" r="8" fill="#ef7a2a"/><circle cx="980" cy="600" r="8" fill="#ef7a2a"/><circle cx="1030" cy="600" r="8" fill="#ef7a2a"/><circle cx="1080" cy="600" r="8" fill="#ef7a2a"/></g><g transform="translate(600,338)" filter="url(#s)"><path d="M-140 -120 h110 a30 30 0 0 1 60 0 h110 v110 a30 30 0 0 1 0 60 v110 h-110 a30 30 0 0 0 -60 0 h-110 v-110 a30 30 0 0 0 0 -60 z" fill="#ef7a2a"/><path d="M40 40 h100 v100 h-100 a30 30 0 0 1 0 -60 a30 30 0 0 0 0 -40 z" fill="#5091cd" opacity="0.9"/></g></svg>