<svg xmlns="http://www.w3.org/2000/svg" viewBox="0 0 1200 675" width="1200" height="675" role="img" aria-label="Add a gateway to WHMCS"><defs><linearGradient id="g" x1="0" y1="0" x2="1" y2="1"><stop offset="0" stop-color="#e9f3fb"/><stop offset="1" stop-color="#ffffff"/></linearGradient><filter id="s" x="-40%" y="-40%" width="180%" height="180%"><feDropShadow dx="0" dy="20" stdDeviation="34" flood-color="#2a7ec2" flood-opacity="0.20"/></filter></defs><rect width="1200" height="675" fill="url(#g)"/><circle cx="1060" cy="90" r="250" fill="#2a7ec2" opacity="0.08"/><circle cx="150" cy="600" r="190" fill="#f0a500" opacity="0.10"/><g opacity="0.5"><circle cx="980" cy="560" r="8" fill="#2a7ec2"/><circle cx="1030" cy="560" r="8" fill="#2a7ec2"/><circle cx="1080" cy="560" r="8" fill="#2a7ec2"/><circle cx="980" cy="600" r="8" fill="#2a7ec2"/><circle cx="1030" cy="600" r="8" fill="#2a7ec2"/><circle cx="1080" cy="600" r="8" fill="#2a7ec2"/></g><g transform="translate(600,338)" filter="url(#s)"><g fill="none" stroke="#2a7ec2" stroke-width="16"><path d="M120 -120 a170 170 0 1 1 -170 -30" fill="none"/></g><path d="M120 -150 l0 60 l-58 -6 z" fill="#2a7ec2"/><rect x="-96" y="-60" width="192" height="150" rx="24" fill="#f0a500"/><rect x="-60" y="-18" width="120" height="22" rx="11" fill="#fff" opacity="0.9"/><rect x="-60" y="26" width="80" height="22" rx="11" fill="#fff" opacity="0.9"/></g></svg>