<svg xmlns="http://www.w3.org/2000/svg" viewBox="0 0 1200 675" width="1200" height="675" role="img" aria-label="Provider not supported"><defs><linearGradient id="g" x1="0" y1="0" x2="1" y2="1"><stop offset="0" stop-color="#f1f4f8"/><stop offset="1" stop-color="#ffffff"/></linearGradient><filter id="s" x="-40%" y="-40%" width="180%" height="180%"><feDropShadow dx="0" dy="20" stdDeviation="34" flood-color="#64748b" flood-opacity="0.20"/></filter></defs><rect width="1200" height="675" fill="url(#g)"/><circle cx="1060" cy="90" r="250" fill="#64748b" opacity="0.08"/><circle cx="150" cy="600" r="190" fill="#f0a500" opacity="0.10"/><g opacity="0.5"><circle cx="980" cy="560" r="8" fill="#64748b"/><circle cx="1030" cy="560" r="8" fill="#64748b"/><circle cx="1080" cy="560" r="8" fill="#64748b"/><circle cx="980" cy="600" r="8" fill="#64748b"/><circle cx="1030" cy="600" r="8" fill="#64748b"/><circle cx="1080" cy="600" r="8" fill="#64748b"/></g><g transform="translate(600,338)" filter="url(#s)"><rect x="-160" y="-70" width="150" height="150" rx="26" fill="#64748b" opacity="0.35"/><circle cx="-85" cy="5" r="70" fill="none" stroke="#64748b" stroke-width="16"/><line x1="-133" y1="-43" x2="-37" y2="53" stroke="#64748b" stroke-width="16" stroke-linecap="round"/><rect x="40" y="-70" width="150" height="150" rx="26" fill="#f0a500"/><path d="M78 5 l30 34 l58 -70" stroke="#fff" stroke-width="16" fill="none" stroke-linecap="round" stroke-linejoin="round"/></g></svg>