<svg xmlns="http://www.w3.org/2000/svg" viewBox="0 0 1200 675" width="1200" height="675" role="img" aria-label="Many gateways, one plugin"><defs><linearGradient id="g" x1="0" y1="0" x2="1" y2="1"><stop offset="0" stop-color="#f4effc"/><stop offset="1" stop-color="#ffffff"/></linearGradient><filter id="s" x="-40%" y="-40%" width="180%" height="180%"><feDropShadow dx="0" dy="20" stdDeviation="34" flood-color="#7f54b3" flood-opacity="0.20"/></filter></defs><rect width="1200" height="675" fill="url(#g)"/><circle cx="1060" cy="90" r="250" fill="#7f54b3" opacity="0.08"/><circle cx="150" cy="600" r="190" fill="#22c1c3" opacity="0.10"/><g opacity="0.5"><circle cx="980" cy="560" r="8" fill="#7f54b3"/><circle cx="1030" cy="560" r="8" fill="#7f54b3"/><circle cx="1080" cy="560" r="8" fill="#7f54b3"/><circle cx="980" cy="600" r="8" fill="#7f54b3"/><circle cx="1030" cy="600" r="8" fill="#7f54b3"/><circle cx="1080" cy="600" r="8" fill="#7f54b3"/></g><g transform="translate(600,338)" filter="url(#s)"><g fill="#22c1c3"><circle cx="-170" cy="-110" r="24"/><circle cx="-170" cy="-37" r="24"/><circle cx="-170" cy="37" r="24"/><circle cx="-170" cy="110" r="24"/></g><g stroke="#7f54b3" stroke-width="14" fill="none" opacity="0.8"><path d="M-170 -110 C -40 -110 20 0 150 0"/><path d="M-170 -37 C -60 -37 30 0 150 0"/><path d="M-170 37 C -60 37 30 0 150 0"/><path d="M-170 110 C -40 110 20 0 150 0"/></g><circle cx="160" cy="0" r="48" fill="#7f54b3"/></g></svg>